<svg width="100%" viewBox="0 0 680 640" xmlns="http://www.w3.org/2000/svg">
<style>
  text { font-family: -apple-system, BlinkMacSystemFont, "Segoe UI", Helvetica, Arial, sans-serif; }
  .th { font-size: 14px; font-weight: 500; }
  .ts { font-size: 12px; font-weight: 400; }
  .layer-label { font-size: 11px; font-weight: 500; letter-spacing: 1.5px; text-transform: uppercase; }
</style>

<!-- Background -->
<rect width="680" height="640" fill="#ffffff" rx="8"/>

<!-- Layer labels (left margin) -->
<text class="layer-label" x="30" y="80" text-anchor="middle" transform="rotate(-90,30,80)" fill="#888780">DEVELOPER</text>
<text class="layer-label" x="30" y="278" text-anchor="middle" transform="rotate(-90,30,278)" fill="#888780">ORCHESTRATION</text>
<text class="layer-label" x="30" y="475" text-anchor="middle" transform="rotate(-90,30,475)" fill="#888780">SDK / RUNTIME</text>

<!-- Horizontal dividers -->
<line x1="55" y1="150" x2="655" y2="150" stroke="#D3D1C7" stroke-width="0.5" stroke-dasharray="4 4"/>
<line x1="55" y1="385" x2="655" y2="385" stroke="#D3D1C7" stroke-width="0.5" stroke-dasharray="4 4"/>

<!-- === TOP LAYER: Developer-facing tools === -->

<!-- Cantool (PR #77) -->
<rect x="65" y="30" width="285" height="108" rx="12" fill="#E1F5EE" stroke="#0F6E56" stroke-width="0.5"/>
<text class="th" x="207" y="54" text-anchor="middle" fill="#085041">Cantool (PR #77)</text>
<text class="ts" x="207" y="72" text-anchor="middle" fill="#0F6E56">init · env · status · auth</text>
<text class="ts" x="207" y="88" text-anchor="middle" fill="#0F6E56">mcp serve · plugin system</text>
<text class="ts" x="207" y="106" text-anchor="middle" fill="#0F6E56">v0.1.0 shipped · Go single binary</text>
<text class="ts" x="207" y="122" text-anchor="middle" fill="#0F6E56">Zero runtime dependencies</text>

<!-- AI assistants -->
<rect x="380" y="30" width="270" height="60" rx="12" fill="#EEEDFE" stroke="#534AB7" stroke-width="0.5"/>
<text class="th" x="515" y="54" text-anchor="middle" fill="#3C3489">AI assistants</text>
<text class="ts" x="515" y="72" text-anchor="middle" fill="#534AB7">Claude · Cursor · Copilot via MCP</text>

<!-- MCP arrow -->
<line x1="350" y1="60" x2="378" y2="60" stroke="#534AB7" stroke-width="1" marker-end="url(#arrow-purple)"/>
<text class="ts" x="364" y="52" text-anchor="middle" fill="#534AB7">MCP</text>

<!-- === MIDDLE LAYER: Orchestration === -->

<!-- DevKit (PR #18) -->
<rect x="65" y="170" width="185" height="96" rx="12" fill="#E6F1FB" stroke="#185FA5" stroke-width="0.5"/>
<text class="th" x="157" y="194" text-anchor="middle" fill="#0C447C">DevKit (PR #18)</text>
<text class="ts" x="157" y="212" text-anchor="middle" fill="#185FA5">LocalNet lifecycle mgmt</text>
<text class="ts" x="157" y="228" text-anchor="middle" fill="#185FA5">Docker topology · sandbox</text>
<text class="ts" x="157" y="248" text-anchor="middle" fill="#185FA5">Proposed · not yet funded</text>

<!-- dpm DevKit (PR #105) -->
<rect x="268" y="170" width="200" height="96" rx="12" fill="#FAECE7" stroke="#993C1D" stroke-width="0.5"/>
<text class="th" x="368" y="194" text-anchor="middle" fill="#712B13">dpm DevKit (PR #105)</text>
<text class="ts" x="368" y="212" text-anchor="middle" fill="#993C1D">Dependency mgmt · lockfiles</text>
<text class="ts" x="368" y="228" text-anchor="middle" fill="#993C1D">Discovery · docs · tracing</text>
<text class="ts" x="368" y="248" text-anchor="middle" fill="#993C1D">AI diagnostics on trace outputs</text>

<!-- Daml Code Assistant (PR #10) -->
<rect x="486" y="170" width="164" height="96" rx="12" fill="#FBEAF0" stroke="#993556" stroke-width="0.5"/>
<text class="th" x="568" y="194" text-anchor="middle" fill="#72243E">Daml Code Asst.</text>
<text class="ts" x="568" y="212" text-anchor="middle" fill="#993556">(PR #10)</text>
<text class="ts" x="568" y="228" text-anchor="middle" fill="#993556">AI code completion</text>
<text class="ts" x="568" y="248" text-anchor="middle" fill="#993556">Funded</text>

<!-- Proposal status labels below orchestration boxes -->
<rect x="268" y="272" width="200" height="20" rx="4" fill="#FAECE7" stroke="none"/>
<text class="ts" x="368" y="286" text-anchor="middle" fill="#993C1D">Proposed · no champion</text>

<!-- === BOTTOM LAYER: SDK / Runtime === -->

<!-- dpm -->
<rect x="65" y="405" width="285" height="104" rx="12" fill="#F1EFE8" stroke="#5F5E5A" stroke-width="0.5"/>
<text class="th" x="207" y="429" text-anchor="middle" fill="#444441">dpm (Digital Asset)</text>
<text class="ts" x="207" y="447" text-anchor="middle" fill="#5F5E5A">build · test · clean · sandbox · codegen</text>
<text class="ts" x="207" y="463" text-anchor="middle" fill="#5F5E5A">install · studio · damlc · inspect-dar</text>
<text class="ts" x="207" y="479" text-anchor="middle" fill="#5F5E5A">SDK version management</text>
<text class="ts" x="207" y="495" text-anchor="middle" fill="#5F5E5A">Requires JDK 17+</text>

<!-- Canton runtime -->
<rect x="380" y="405" width="270" height="104" rx="12" fill="#F1EFE8" stroke="#5F5E5A" stroke-width="0.5"/>
<text class="th" x="515" y="429" text-anchor="middle" fill="#444441">Canton runtime</text>
<text class="ts" x="515" y="447" text-anchor="middle" fill="#5F5E5A">Participant nodes · sync domains</text>
<text class="ts" x="515" y="463" text-anchor="middle" fill="#5F5E5A">Ledger API · JSON API · PQS</text>
<text class="ts" x="515" y="479" text-anchor="middle" fill="#5F5E5A">Daml Shell · Canton Console</text>

<!-- === ARROWS === -->
<defs>
  <marker id="arrow-green" viewBox="0 0 10 10" refX="8" refY="5" markerWidth="6" markerHeight="6" orient="auto-start-reverse"><path d="M2 1L8 5L2 9" fill="none" stroke="#0F6E56" stroke-width="1.5" stroke-linecap="round" stroke-linejoin="round"/></marker>
  <marker id="arrow-purple" viewBox="0 0 10 10" refX="8" refY="5" markerWidth="6" markerHeight="6" orient="auto-start-reverse"><path d="M2 1L8 5L2 9" fill="none" stroke="#534AB7" stroke-width="1.5" stroke-linecap="round" stroke-linejoin="round"/></marker>
  <marker id="arrow-blue" viewBox="0 0 10 10" refX="8" refY="5" markerWidth="6" markerHeight="6" orient="auto-start-reverse"><path d="M2 1L8 5L2 9" fill="none" stroke="#185FA5" stroke-width="1.5" stroke-linecap="round" stroke-linejoin="round"/></marker>
  <marker id="arrow-coral" viewBox="0 0 10 10" refX="8" refY="5" markerWidth="6" markerHeight="6" orient="auto-start-reverse"><path d="M2 1L8 5L2 9" fill="none" stroke="#993C1D" stroke-width="1.5" stroke-linecap="round" stroke-linejoin="round"/></marker>
  <marker id="arrow-gray" viewBox="0 0 10 10" refX="8" refY="5" markerWidth="6" markerHeight="6" orient="auto-start-reverse"><path d="M2 1L8 5L2 9" fill="none" stroke="#5F5E5A" stroke-width="1.5" stroke-linecap="round" stroke-linejoin="round"/></marker>
</defs>

<!-- Cantool → Canton runtime (funded — MCP, env, status use Ledger API directly) -->
<line x1="300" y1="138" x2="450" y2="403" stroke="#0F6E56" stroke-width="1" marker-end="url(#arrow-green)"/>
<text class="ts" x="400" y="280" fill="#0F6E56">Ledger API</text>

<!-- DevKit → dpm -->
<line x1="130" y1="266" x2="130" y2="403" stroke="#185FA5" stroke-width="1" marker-end="url(#arrow-blue)"/>

<!-- DevKit → Canton runtime -->
<line x1="200" y1="266" x2="420" y2="403" stroke="#185FA5" stroke-width="1" marker-end="url(#arrow-blue)"/>

<!-- dpm DevKit → dpm -->
<line x1="320" y1="266" x2="260" y2="403" stroke="#993C1D" stroke-width="1" marker-end="url(#arrow-coral)"/>

<!-- dpm DevKit → Canton runtime -->
<line x1="420" y1="266" x2="470" y2="403" stroke="#993C1D" stroke-width="1" marker-end="url(#arrow-coral)"/>

<!-- dpm → Canton runtime -->
<line x1="350" y1="457" x2="378" y2="457" stroke="#5F5E5A" stroke-width="1" marker-end="url(#arrow-gray)"/>

<!-- === LEGEND === -->
<rect x="65" y="540" width="585" height="80" rx="8" fill="#F9F9F7" stroke="#D3D1C7" stroke-width="0.5"/>
<rect x="80" y="554" width="12" height="12" rx="3" fill="#E1F5EE" stroke="#0F6E56" stroke-width="0.5"/>
<text class="ts" x="98" y="565" fill="#444441">Cantool — funded greenfield scope</text>
<rect x="80" y="574" width="12" height="12" rx="3" fill="#E6F1FB" stroke="#185FA5" stroke-width="0.5"/>
<text class="ts" x="98" y="585" fill="#444441">DevKit (PR #18) — proposed</text>
<rect x="80" y="594" width="12" height="12" rx="3" fill="#FAECE7" stroke="#993C1D" stroke-width="0.5"/>
<text class="ts" x="98" y="605" fill="#444441">dpm DevKit (PR #105) — proposed, no champion</text>
<rect x="370" y="554" width="12" height="12" rx="3" fill="#F1EFE8" stroke="#5F5E5A" stroke-width="0.5"/>
<text class="ts" x="388" y="565" fill="#444441">dpm / Canton runtime — existing (DA)</text>
<rect x="370" y="574" width="12" height="12" rx="3" fill="#EEEDFE" stroke="#534AB7" stroke-width="0.5"/>
<text class="ts" x="388" y="585" fill="#444441">AI assistants — connected via MCP</text>
<rect x="370" y="594" width="12" height="12" rx="3" fill="#FBEAF0" stroke="#993556" stroke-width="0.5"/>
<text class="ts" x="388" y="605" fill="#444441">Daml Code Assistant (PR #10) — funded</text>
</svg>
